<svg width="32" height="32" viewBox="0 0 32 32" fill="none" xmlns="http://www.w3.org/2000/svg">
<path d="M19.5807 15.3484L8.51172 13.3984V27.8074C8.51185 27.964 8.54281 28.119 8.60284 28.2635C8.66286 28.4081 8.75077 28.5394 8.86155 28.65C8.97233 28.7606 9.10381 28.8483 9.24848 28.9081C9.39315 28.9679 9.54818 28.9986 9.70472 28.9984H28.8047C28.9614 28.9988 29.1167 28.9683 29.2616 28.9087C29.4065 28.849 29.5382 28.7613 29.6492 28.6507C29.7602 28.5401 29.8483 28.4087 29.9084 28.264C29.9686 28.1193 29.9996 27.9641 29.9997 27.8074V22.4984L19.5807 15.3484Z" fill="#185C37"/>
<path d="M19.5807 3H9.70472C9.54818 2.99987 9.39315 3.03057 9.24848 3.09035C9.10381 3.15014 8.97233 3.23783 8.86155 3.34842C8.75077 3.45902 8.66286 3.59035 8.60284 3.73492C8.54281 3.87949 8.51185 4.03446 8.51172 4.191V9.5L19.5807 16L25.4417 17.95L29.9997 16V9.5L19.5807 3Z" fill="#21A366"/>
<path d="M8.51172 9.5H19.5807V16H8.51172V9.5Z" fill="#107C41"/>
<path opacity="0.1" d="M16.4337 8.20312H8.51172V24.4531H16.4337C16.7494 24.4516 17.0517 24.3257 17.2752 24.1027C17.4987 23.8798 17.6254 23.5778 17.6277 23.2621V9.39412C17.6254 9.07846 17.4987 8.77645 17.2752 8.55352C17.0517 8.33058 16.7494 8.20469 16.4337 8.20312Z" fill="black"/>
<path opacity="0.2" d="M15.7827 8.85156H8.51172V25.1016H15.7827C16.0984 25.1 16.4007 24.9741 16.6242 24.7512C16.8477 24.5282 16.9744 24.2262 16.9767 23.9106V10.0426C16.9744 9.7269 16.8477 9.42488 16.6242 9.20195C16.4007 8.97902 16.0984 8.85313 15.7827 8.85156Z" fill="black"/>
<path opacity="0.2" d="M15.7827 8.85156H8.51172V23.8016H15.7827C16.0984 23.8 16.4007 23.6741 16.6242 23.4512C16.8477 23.2282 16.9744 22.9262 16.9767 22.6106V10.0426C16.9744 9.7269 16.8477 9.42488 16.6242 9.20195C16.4007 8.97902 16.0984 8.85313 15.7827 8.85156Z" fill="black"/>
<path opacity="0.2" d="M15.1317 8.85156H8.51172V23.8016H15.1317C15.4474 23.8 15.7497 23.6741 15.9732 23.4512C16.1967 23.2282 16.3234 22.9262 16.3257 22.6106V10.0426C16.3234 9.7269 16.1967 9.42488 15.9732 9.20195C15.7497 8.97902 15.4474 8.85313 15.1317 8.85156Z" fill="black"/>
<path d="M3.194 8.85156H15.132C15.4482 8.8513 15.7516 8.9766 15.9755 9.19992C16.1994 9.42325 16.3255 9.72633 16.326 10.0426V21.9606C16.3255 22.2768 16.1994 22.5799 15.9755 22.8032C15.7516 23.0265 15.4482 23.1518 15.132 23.1516H3.194C3.03738 23.1518 2.88224 23.1212 2.73746 23.0615C2.59267 23.0018 2.46108 22.9141 2.35019 22.8035C2.2393 22.6929 2.1513 22.5615 2.09121 22.4169C2.03113 22.2722 2.00013 22.1172 2 21.9606V10.0426C2.00013 9.88594 2.03113 9.73089 2.09121 9.58625C2.1513 9.44161 2.2393 9.31024 2.35019 9.19963C2.46108 9.08902 2.59267 9.00135 2.73746 8.94163C2.88224 8.88191 3.03738 8.8513 3.194 8.85156Z" fill="url(#paint0_linear_9932_40887)"/>
<path d="M5.69922 19.871L8.21022 15.987L5.91022 12.125H7.75722L9.01222 14.598C9.12822 14.832 9.21222 15.006 9.25022 15.122H9.26722C9.34922 14.934 9.43622 14.753 9.52722 14.576L10.8692 12.129H12.5692L10.2102 15.969L12.6292 19.874H10.8202L9.37022 17.163C9.30289 17.0464 9.24568 16.9243 9.19922 16.798H9.17522C9.13294 16.9211 9.07656 17.0389 9.00722 17.149L7.51422 19.871H5.69922Z" fill="white"/>
<path d="M28.807 3H19.582V9.5H30.001V4.191C30.0009 4.03438 29.9699 3.87932 29.9098 3.73469C29.8497 3.59005 29.7617 3.45868 29.6508 3.34807C29.54 3.23746 29.4084 3.14979 29.2636 3.09007C29.1188 3.03034 28.9637 2.99974 28.807 3Z" fill="#33C481"/>
<path d="M19.582 16H30.001V22.5H19.582V16Z" fill="#107C41"/>
<defs>
<linearGradient id="paint0_linear_9932_40887" x1="4.494" y1="7.91556" x2="13.832" y2="24.0876" gradientUnits="userSpaceOnUse">
<stop stop-color="#18884F"/>
<stop offset="0.5" stop-color="#117E43"/>
<stop offset="1" stop-color="#0B6631"/>
</linearGradient>
</defs>
</svg>
