<svg width="44" height="50" viewBox="0 0 44 50" fill="none" xmlns="http://www.w3.org/2000/svg">
<path d="M9.375 0C7.65625 0 6.25 1.40625 6.25 3.125V46.875C6.25 48.5938 7.65625 50 9.375 50H40.625C42.3438 50 43.75 48.5938 43.75 46.875V12.5L31.25 0H9.375Z" fill="#E2E5E7"/>
<path d="M34.375 12.5H43.75L31.25 0V9.375C31.25 11.0938 32.6562 12.5 34.375 12.5Z" fill="#B0B7BD"/>
<path d="M43.75 21.875L34.375 12.5H43.75V21.875Z" fill="#CAD1D8"/>
<path d="M37.5 40.625C37.5 41.4844 36.7969 42.1875 35.9375 42.1875H1.5625C0.703125 42.1875 0 41.4844 0 40.625V25C0 24.1406 0.703125 23.4375 1.5625 23.4375H35.9375C36.7969 23.4375 37.5 24.1406 37.5 25V40.625Z" fill="#F15642"/>
<path d="M35.9375 42.1875H6.25V43.75H35.9375C36.7969 43.75 37.5 43.0469 37.5 42.1875V40.625C37.5 41.4844 36.7969 42.1875 35.9375 42.1875Z" fill="#CAD1D8"/>
<path d="M12.4526 34.2207V36.499H11.3882V30.3703H13.7326C14.419 30.3703 14.9627 30.5488 15.3639 30.906C15.7674 31.2607 15.9691 31.7315 15.9691 32.3181C15.9691 32.9187 15.772 33.386 15.3778 33.7199C14.9836 34.0538 14.4317 34.2207 13.7221 34.2207H12.4526ZM12.4526 33.3651H13.7326C14.1129 33.3651 14.4027 33.277 14.6021 33.1007C14.8016 32.9222 14.9013 32.6636 14.9013 32.3251C14.9013 31.9958 14.7992 31.7326 14.5952 31.5355C14.3935 31.3361 14.1163 31.2329 13.7639 31.226H12.4526V33.3651ZM16.9039 36.499V30.3703H18.716C19.2563 30.3703 19.7363 30.4909 20.156 30.732C20.5757 30.9732 20.9004 31.3152 21.1299 31.7581C21.3618 32.201 21.4778 32.7088 21.4778 33.2816V33.5912C21.4778 34.1709 21.3618 34.681 21.1299 35.1216C20.8981 35.5622 20.5676 35.9019 20.1386 36.1407C19.712 36.3796 19.2215 36.499 18.6673 36.499H16.9039ZM17.9682 31.226V35.6503H18.6639C19.2227 35.6503 19.6517 35.4752 19.9508 35.1251C20.2499 34.7749 20.4018 34.2729 20.4065 33.619V33.2781C20.4065 32.6126 20.2615 32.1048 19.9717 31.7546C19.6841 31.4022 19.2656 31.226 18.716 31.226H17.9682ZM26.0706 33.9007H23.601V36.499H22.5367V30.3703H26.4323V31.226H23.601V33.052H26.0706V33.9007Z" fill="white"/>
</svg>
