<svg width="28" height="26" viewBox="0 0 28 26" fill="none" xmlns="http://www.w3.org/2000/svg">
<path d="M26.8057 1.6787e-06H7.70472C7.54818 -0.000129698 7.39315 0.0305722 7.24848 0.0903545C7.10381 0.150137 6.97233 0.237829 6.86155 0.348423C6.75077 0.459018 6.66286 0.590349 6.60284 0.734919C6.54281 0.879489 6.51185 1.03447 6.51172 1.191V6.5L17.5807 9.75L27.9997 6.5V1.191C27.9996 1.03438 27.9686 0.879323 27.9085 0.734688C27.8484 0.590053 27.7604 0.458677 27.6495 0.348069C27.5386 0.237462 27.407 0.149791 27.2623 0.0900672C27.1175 0.0303438 26.9623 -0.000261161 26.8057 1.6787e-06Z" fill="#41A5EE"/>
<path d="M27.9997 6.5H6.51172V13L17.5807 14.95L27.9997 13V6.5Z" fill="#2B7CD3"/>
<path d="M6.51172 13V19.5L16.9297 20.8L27.9997 19.5V13H6.51172Z" fill="#185ABD"/>
<path d="M7.70472 26H26.8047C26.9614 26.0004 27.1167 25.9699 27.2616 25.9102C27.4065 25.8506 27.5382 25.7629 27.6492 25.6523C27.7602 25.5417 27.8483 25.4102 27.9084 25.2655C27.9686 25.1208 27.9996 24.9657 27.9997 24.809V19.5H6.51172V24.809C6.51185 24.9655 6.54281 25.1205 6.60284 25.2651C6.66286 25.4097 6.75077 25.541 6.86155 25.6516C6.97233 25.7622 7.10381 25.8499 7.24848 25.9096C7.39315 25.9694 7.54818 26.0001 7.70472 26Z" fill="#103F91"/>
<path opacity="0.1" d="M14.4337 5.20312H6.51172V21.4531H14.4337C14.7494 21.4516 15.0517 21.3257 15.2752 21.1027C15.4987 20.8798 15.6254 20.5778 15.6277 20.2621V6.39412C15.6254 6.07846 15.4987 5.77645 15.2752 5.55352C15.0517 5.33058 14.7494 5.20469 14.4337 5.20312Z" fill="black"/>
<path opacity="0.2" d="M13.7827 5.85156H6.51172V22.1016H13.7827C14.0984 22.1 14.4007 21.9741 14.6242 21.7512C14.8477 21.5282 14.9744 21.2262 14.9767 20.9106V7.04256C14.9744 6.7269 14.8477 6.42488 14.6242 6.20195C14.4007 5.97902 14.0984 5.85313 13.7827 5.85156Z" fill="black"/>
<path opacity="0.2" d="M13.7827 5.85156H6.51172V20.8016H13.7827C14.0984 20.8 14.4007 20.6741 14.6242 20.4512C14.8477 20.2282 14.9744 19.9262 14.9767 19.6106V7.04256C14.9744 6.7269 14.8477 6.42488 14.6242 6.20195C14.4007 5.97902 14.0984 5.85313 13.7827 5.85156Z" fill="black"/>
<path opacity="0.2" d="M13.1317 5.85156H6.51172V20.8016H13.1317C13.4474 20.8 13.7497 20.6741 13.9732 20.4512C14.1967 20.2282 14.3234 19.9262 14.3257 19.6106V7.04256C14.3234 6.7269 14.1967 6.42488 13.9732 6.20195C13.7497 5.97902 13.4474 5.85313 13.1317 5.85156Z" fill="black"/>
<path d="M1.194 5.85156H13.132C13.4482 5.8513 13.7516 5.9766 13.9755 6.19992C14.1994 6.42325 14.3255 6.72633 14.326 7.04256V18.9606C14.3255 19.2768 14.1994 19.5799 13.9755 19.8032C13.7516 20.0265 13.4482 20.1518 13.132 20.1516H1.194C1.03738 20.1518 0.882244 20.1212 0.737458 20.0615C0.592672 20.0018 0.461075 19.9141 0.350189 19.8035C0.239303 19.6929 0.151301 19.5615 0.0912137 19.4169C0.0311263 19.2722 0.000131172 19.1172 0 18.9606V7.04256C0.000131172 6.88594 0.0311263 6.73089 0.0912137 6.58625C0.151301 6.44161 0.239303 6.31024 0.350189 6.19963C0.461075 6.08902 0.592672 6.00135 0.737458 5.94163C0.882244 5.88191 1.03738 5.8513 1.194 5.85156Z" fill="url(#paint0_linear_9931_40874)"/>
<path d="M4.90141 14.9852C4.92441 15.1692 4.94041 15.3292 4.94741 15.4662H4.97541C4.98541 15.3362 5.00741 15.1792 5.04041 14.9962C5.07341 14.8132 5.10241 14.6582 5.12941 14.5312L6.38441 9.12419H8.00841L9.30841 14.4502C9.38413 14.7796 9.43824 15.1137 9.47041 15.4502H9.49241C9.51629 15.1226 9.56139 14.7969 9.62741 14.4752L10.6664 9.11719H12.1434L10.3194 16.8652H8.59241L7.35541 11.7392C7.31941 11.5912 7.27874 11.3985 7.23341 11.1612C7.18807 10.9239 7.16007 10.7505 7.14941 10.6412H7.12841C7.11441 10.7672 7.08641 10.9542 7.04441 11.2022C7.00241 11.4512 6.96941 11.6342 6.94441 11.7542L5.78141 16.8682H4.02541L2.19141 9.12419H3.69141L4.82241 14.5422C4.85616 14.6884 4.88253 14.8363 4.90141 14.9852Z" fill="white"/>
<defs>
<linearGradient id="paint0_linear_9931_40874" x1="2.494" y1="4.91556" x2="11.832" y2="21.0876" gradientUnits="userSpaceOnUse">
<stop stop-color="#2368C4"/>
<stop offset="0.5" stop-color="#1A5DBE"/>
<stop offset="1" stop-color="#1146AC"/>
</linearGradient>
</defs>
</svg>
