<svg width="32" height="32" viewBox="0 0 32 32" fill="none" xmlns="http://www.w3.org/2000/svg">
<path d="M18.9301 17.3L16.9771 3H16.8311C13.4216 3.00579 10.153 4.36115 7.73988 6.7698C5.32673 9.17845 3.96528 12.4445 3.95312 15.854V16L18.9301 17.3Z" fill="#ED6C47"/>
<path d="M17.1226 3H16.9766V16L23.4876 18.6L29.9996 16V15.854C29.9874 12.4447 28.6261 9.17878 26.2132 6.77015C23.8002 4.36153 20.5319 3.00606 17.1226 3V3Z" fill="#FF8F6B"/>
<path d="M30.0001 16V16.143C29.9874 19.553 28.6257 22.8193 26.2123 25.2284C23.7989 27.6375 20.5301 28.9934 17.1201 29H16.8331C13.4233 28.9929 10.1548 27.6368 7.74156 25.2278C5.32829 22.8188 3.96633 19.5528 3.95312 16.143V16H30.0001Z" fill="#D35230"/>
<path opacity="0.1" d="M17.6281 9.39213V23.2631C17.6263 23.4991 17.555 23.7294 17.423 23.925C17.291 24.1207 17.1043 24.2731 16.8861 24.3631C16.7437 24.4231 16.5907 24.4541 16.4361 24.4541H7.02713C6.84459 24.2447 6.67077 24.0279 6.50613 23.8041C4.84742 21.5961 3.9514 18.9088 3.95314 16.1471V15.8611C3.94999 13.3701 4.67922 10.933 6.05014 8.85313C6.1923 8.62972 6.34445 8.41284 6.50613 8.20312H16.4361C16.7511 8.20521 17.0526 8.33106 17.2756 8.5535C17.4987 8.77595 17.6253 9.07716 17.6281 9.39213V9.39213Z" fill="black"/>
<path opacity="0.2" d="M16.9771 10.0416V23.9126C16.9771 24.0665 16.9461 24.2188 16.8861 24.3606C16.7959 24.5785 16.6435 24.765 16.4478 24.8968C16.2522 25.0286 16.022 25.0998 15.7861 25.1016H7.62013C7.41413 24.8922 7.21647 24.6756 7.02713 24.4516C6.84458 24.2422 6.67077 24.0253 6.50613 23.8016C4.84742 21.5936 3.9514 18.9062 3.95313 16.1446V15.8586C3.95019 13.3678 4.67941 10.9312 6.05013 8.85156H15.7851C16.1003 8.85365 16.402 8.97963 16.625 9.2023C16.848 9.42496 16.9745 9.72642 16.9771 10.0416V10.0416Z" fill="black"/>
<path opacity="0.2" d="M16.9771 10.0416V22.6126C16.9743 22.9275 16.8476 23.2287 16.6246 23.4512C16.4016 23.6736 16.1001 23.7995 15.7851 23.8016H6.50613C4.84742 21.5936 3.9514 18.9062 3.95313 16.1446V15.8586C3.95019 13.3678 4.67941 10.9312 6.05013 8.85156H15.7851C16.1003 8.85365 16.402 8.97963 16.625 9.2023C16.848 9.42496 16.9745 9.72642 16.9771 10.0416V10.0416Z" fill="black"/>
<path opacity="0.2" d="M16.3261 10.0416V22.6126C16.3233 22.9275 16.1966 23.2287 15.9736 23.4512C15.7506 23.6736 15.4491 23.7995 15.1341 23.8016H6.50613C4.84742 21.5936 3.9514 18.9062 3.95313 16.1446V15.8586C3.95019 13.3678 4.67941 10.9312 6.05013 8.85156H15.1341C15.4493 8.85365 15.751 8.97963 15.974 9.2023C16.197 9.42496 16.3235 9.72642 16.3261 10.0416V10.0416Z" fill="black"/>
<path d="M3.194 8.85156H15.132C15.4482 8.8513 15.7516 8.9766 15.9755 9.19992C16.1994 9.42325 16.3255 9.72633 16.326 10.0426V21.9606C16.3255 22.2768 16.1994 22.5799 15.9755 22.8032C15.7516 23.0265 15.4482 23.1518 15.132 23.1516H3.194C3.03738 23.1518 2.88224 23.1212 2.73746 23.0615C2.59267 23.0018 2.46108 22.9141 2.35019 22.8035C2.2393 22.6929 2.1513 22.5615 2.09121 22.4169C2.03113 22.2722 2.00013 22.1172 2 21.9606V10.0426C2.00013 9.88594 2.03113 9.73089 2.09121 9.58625C2.1513 9.44161 2.2393 9.31024 2.35019 9.19963C2.46108 9.08902 2.59267 9.00135 2.73746 8.94163C2.88224 8.88191 3.03738 8.8513 3.194 8.85156V8.85156Z" fill="url(#paint0_linear_9949_40873)"/>
<path d="M9.29263 12.0309C10.0698 11.9786 10.8402 12.204 11.4666 12.6669C11.7242 12.8961 11.9261 13.1811 12.0571 13.5001C12.1881 13.8191 12.2447 14.1637 12.2226 14.5079C12.2314 14.9926 12.102 15.4699 11.8496 15.8839C11.5943 16.2912 11.2265 16.616 10.7906 16.8189C10.2926 17.0498 9.74846 17.164 9.19963 17.1529H7.68663V19.9529H6.14062V12.0309H9.29263ZM7.68563 15.9429H9.01663C9.43863 15.9733 9.85721 15.8485 10.1936 15.5919C10.3312 15.4606 10.4383 15.3009 10.5074 15.1238C10.5765 14.9467 10.606 14.7566 10.5936 14.5669C10.5936 13.6942 10.0853 13.2575 9.06863 13.2569H7.68563V15.9429V15.9429Z" fill="white"/>
<defs>
<linearGradient id="paint0_linear_9949_40873" x1="4.494" y1="7.91556" x2="13.832" y2="24.0876" gradientUnits="userSpaceOnUse">
<stop stop-color="#CA4C28"/>
<stop offset="0.5" stop-color="#C5401E"/>
<stop offset="1" stop-color="#B62F14"/>
</linearGradient>
</defs>
</svg>
