<svg width="793" height="793" viewBox="0 0 793 793" fill="none" xmlns="http://www.w3.org/2000/svg">
<path d="M0.574219 0.75H201.574C309.27 0.75 396.574 88.0545 396.574 195.75V396.75H195.574C87.8787 396.75 0.574219 309.446 0.574219 201.75V0.75Z" fill="#5643C1"/>
<path d="M396.574 195.75C396.574 88.0545 483.879 0.75 591.574 0.75H597.574C705.27 0.75 792.574 88.0545 792.574 195.75V396.75H591.574C483.879 396.75 396.574 309.446 396.574 201.75V195.75Z" fill="#00CCB1"/>
<path d="M201.574 396.75C309.27 396.75 396.574 484.054 396.574 591.75L396.574 597.75C396.574 705.446 309.27 792.75 201.574 792.75L0.574201 792.75L0.57421 591.75C0.574215 484.054 87.8787 396.75 195.574 396.75L201.574 396.75Z" fill="#FEC144"/>
<path d="M597.574 396.75C705.27 396.75 792.574 484.054 792.574 591.75L792.574 792.75L396.574 792.75L396.574 396.75L597.574 396.75Z" fill="#FF7170"/>
</svg>
