<svg width="76" height="76" viewBox="0 0 76 76" fill="none" xmlns="http://www.w3.org/2000/svg">
<path opacity="0.4" d="M55.7168 34.6208C60.7911 34.6208 64.9071 30.5075 64.9071 25.4334C64.9071 20.3593 60.7911 16.2461 55.7168 16.2461" stroke="#5643C1" stroke-width="2.5" stroke-linecap="round" stroke-linejoin="round"/>
<path opacity="0.4" d="M59.9414 44.6055C61.4567 44.71 62.963 44.925 64.4463 45.2588C66.5075 45.6622 68.9864 46.5071 69.8689 48.3561C70.4319 49.5404 70.4319 50.9192 69.8689 52.1064C68.9892 53.9554 66.5075 54.7974 64.4463 55.2211" stroke="#5643C1" stroke-width="2.5" stroke-linecap="round" stroke-linejoin="round"/>
<path opacity="0.4" d="M19.9187 34.6208C14.8446 34.6208 10.7285 30.5075 10.7285 25.4334C10.7285 20.3593 14.8446 16.2461 19.9187 16.2461" stroke="#5643C1" stroke-width="2.5" stroke-linecap="round" stroke-linejoin="round"/>
<path opacity="0.4" d="M15.6929 44.6055C14.1776 44.71 12.6711 44.925 11.1878 45.2588C9.12682 45.6622 6.64782 46.5071 5.76828 48.3561C5.20224 49.5404 5.20224 50.9192 5.76828 52.1064C6.64494 53.9554 9.12682 54.7974 11.1878 55.2211" stroke="#5643C1" stroke-width="2.5" stroke-linecap="round" stroke-linejoin="round"/>
<path fill-rule="evenodd" clip-rule="evenodd" d="M37.8017 46.582C48.0836 46.582 56.8673 48.1378 56.8673 54.3641C56.8673 60.5879 48.1415 62.2016 37.8017 62.2016C27.5172 62.2016 18.7363 60.6458 18.7363 54.4195C18.7363 48.1929 27.4621 46.582 37.8017 46.582Z" stroke="#5643C1" stroke-width="2.5" stroke-linecap="round" stroke-linejoin="round"/>
<path fill-rule="evenodd" clip-rule="evenodd" d="M37.8037 37.7021C31.0228 37.7021 25.5859 32.2653 25.5859 25.4815C25.5859 18.7006 31.0228 13.2637 37.8037 13.2637C44.5848 13.2637 50.0216 18.7006 50.0216 25.4815C50.0216 32.2653 44.5848 37.7021 37.8037 37.7021Z" stroke="#5643C1" stroke-width="2.5" stroke-linecap="round" stroke-linejoin="round"/>
</svg>
